<svg width="34" height="18" viewBox="0 0 34 18" fill="none" xmlns="http://www.w3.org/2000/svg">
<rect width="34" height="18" rx="9" fill="#9855FF"/>
<path d="M11.7152 5.22727V12.5H10.3871L7.22301 7.92259H7.16974V12.5H5.6321V5.22727H6.98153L10.1207 9.80114H10.1847V5.22727H11.7152ZM12.9846 12.5V5.22727H17.8852V6.49503H14.5223V8.22798H17.6331V9.49574H14.5223V11.2322H17.8994V12.5H12.9846ZM20.7437 12.5L18.6628 5.22727H20.3425L21.5463 10.2805H21.6067L22.9348 5.22727H24.373L25.6976 10.2912H25.7615L26.9653 5.22727H28.645L26.5641 12.5H25.0655L23.6805 7.74503H23.6237L22.2423 12.5H20.7437Z" fill="black"/>
</svg>
